<mxfile host="65bd71144e" modified="2021-01-21T09:36:02.520Z" agent="5.0 (Windows NT 10.0; Win64; x64) AppleWebKit/537.36 (KHTML, like Gecko) Code/1.52.1 Chrome/83.0.4103.122 Electron/9.3.5 Safari/537.36" version="13.10.0" etag="zgb4T9W_mwUonbEiH8Yn" type="embed">
    <diagram id="i3gQ0Pytnz6hCRT-8ysW" name="Page-1">
        <mxGraphModel dx="918" dy="1150" grid="1" gridSize="10" guides="1" tooltips="1" connect="1" arrows="1" fold="1" page="1" pageScale="1" pageWidth="850" pageHeight="1100" math="0" shadow="0">
            <root>
                <mxCell id="0"/>
                <mxCell id="1" parent="0"/>
                <mxCell id="2" value="erDiagram&#10;    FMG-EUS-COR-VNT {&#10;        resourcegroup FMG-EUS-COR-RG-NETWORK&#10;        subscription IS-Shared-Services&#10;        location eastus&#10;        type Microsoft-Network-virtualNetworks&#10;    }&#10;    FMG-EUS-COR-VNT ||--|{ FMG-EUS-COR-VWANHUB : peering&#10;    AUE-VNT-COR-001 {&#10;        resourcegroup AUE-ARG-COR-NET-ER&#10;        subscription IS-Shared-Services&#10;        location australiaeast&#10;        type Microsoft-Network-virtualNetworks&#10;    }&#10;    AUE-VNT-COR-001 }|--|| VNSYDPROD01 : peering&#10;    AUE-VNT-COR-001 }|--|| AUE-VNT-WEB-001 : peering&#10;    AUE-VNT-COR-001 }|--|| FMG-SYD-POC-VNT : peering&#10;    AUE-VNT-COR-001 }|--|| FMG-SYD-COR-VNT : peering&#10;    AUE-VNT-COR-001 }|--|| FMG-SYD-PRD-VNT : peering&#10;    AUE-VNT-COR-001 }|--|| FMG-SYD-NPE-VNT : peering&#10;    AUE-VNT-COR-001 }|--|| FMG-AUC-PRD-VNT : peering&#10;    AUE-VNT-COR-001 }|--|| FMG-MAA-COR-VNT : peering&#10;    AUE-VNT-COR-001 }|--|| FMG-MAA-DEV-VNT : peering&#10;    AUE-VNT-COR-001 }|--|| FI-SYD-COR-VNT : peering&#10;    FMG-SYD-COR-VNT-OffNet {&#10;        resourcegroup FMG-SYD-COR-RG-NETWORK&#10;        subscription IS-Shared-Services&#10;        location australiaeast&#10;        type Microsoft-Network-virtualNetworks&#10;    }&#10;    FMG-SYD-COR-VNT {&#10;        resourcegroup FMG-SYD-COR-RG-NETWORK&#10;        subscription IS-Shared-Services&#10;        location australiaeast&#10;        type Microsoft-Network-virtualNetworks&#10;    }&#10;    FMG-SYD-COR-VNT |o--o| FMG-SYD-HUB-VNET-OffNet_24 : peering&#10;    FMG-SYD-COR-VNT |o--o| FMG-AUC-PRD-VNT : peering&#10;    FMG-SYD-HUB-VNET-OffNet_24 {&#10;        resourcegroup FMG-SYD-PRD-RG-RemoteAccess&#10;        subscription IS-Shared-Services&#10;        location australiaeast&#10;        type Microsoft-Network-virtualNetworks&#10;    }&#10;    FMG-SYD-HUB-VNET-OffNet_24 |o--o| FMG-SYD-PRD-VNT : peering&#10;    FMG-SYD-HUB-VNET-OffNet_24 |o--o| FMG-AUC-PRD-VNT : peering&#10;    FMG-MAA-COR-VNT {&#10;        resourcegroup FMG-MAA-COR-RG-NETWORK&#10;        subscription IS-Shared-Services&#10;        location southindia&#10;        type Microsoft-Network-virtualNetworks&#10;    }&#10;    FMG-MAA-COR-VNT |o--o| FMG-MAA-DEV-VNT : peering&#10;    FMG-MAA-COR-VNT-OffNet {&#10;        resourcegroup FMG-MAA-COR-RG-NETWORK&#10;        subscription IS-Shared-Services&#10;        location southindia&#10;        type Microsoft-Network-virtualNetworks&#10;    }&#10;    FMG-MAA-COR-VNT-OffNet ||--|{ FMG-MAA-COR-VWANHUB : peering&#10;    FMG-FRC-COR-HUB {&#10;        resourcegroup FMG-FRC-COR-RG-NETWORK&#10;        subscription IS-Shared-Services&#10;        location francecentral&#10;        type Microsoft-Network-virtualNetworks&#10;    }&#10;    FMG-FRC-COR-HUB }|--|| FMG-FRC-COR-VNT : peering&#10;    FMG-FRC-COR-HUB }|--|| FMG-FRC-PRD-VNT : peering&#10;    FMG-FRC-COR-HUB }|--|| FMG-FRC-PRD-VNT : peering&#10;    FMG-FRC-COR-VNT {&#10;        resourcegroup FMG-FRC-COR-RG-NETWORK&#10;        subscription IS-Shared-Services&#10;        location francecentral&#10;        type Microsoft-Network-virtualNetworks&#10;    }&#10;    FMG-SYD-POC-VNT {&#10;        resourcegroup FMG-SYD-POC-RG-NETWORK&#10;        subscription IS-SAPHanaPOC&#10;        location australiaeast&#10;        type Microsoft-Network-virtualNetworks&#10;    }&#10;    FMG-SYD-TRN-VNET {&#10;        resourcegroup FMG-SYD-TRN-RG-NETWORK&#10;        subscription IS-Training&#10;        location australiaeast&#10;        type Microsoft-Network-virtualNetworks&#10;    }&#10;    VNSEADEV01 {&#10;        resourcegroup RGSEADEV01&#10;        subscription IS-Dev-Test&#10;        location southeastasia&#10;        type Microsoft-Network-virtualNetworks&#10;    }&#10;    VNSEADEV01 |o--o| FMG-SYD-PRD-VNT : peering&#10;    FMG-SYD-DEV-CognitiveSearch-vnet {&#10;        resourcegroup FMG-SYD-DEV-CognitiveSearch&#10;        subscription IS-Dev-Test&#10;        location australiaeast&#10;        type Microsoft-Network-virtualNetworks&#10;    }&#10;    FMG-SYD-DEV-RG-IOP-vnet {&#10;        resourcegroup FMG-SYD-DEV-RG-IOP&#10;        subscription IS-Dev-Test&#10;        location australiaeast&#10;        type Microsoft-Network-virtualNetworks&#10;    }&#10;    FMG-SYD-DEV-RG-SAP-vnet {&#10;        resourcegroup FMG-SYD-DEV-RG-SAP&#10;        subscription IS-Dev-Test&#10;        location australiaeast&#10;        type Microsoft-Network-virtualNetworks&#10;    }&#10;    FMG-SYD-NPE-VNT {&#10;        resourcegroup FMG-SYD-NPE-RG-NETWORK&#10;        subscription IS-Dev-Test&#10;        location australiaeast&#10;        type Microsoft-Network-virtualNetworks&#10;    }&#10;    FMG-SYD-NPE-VNT |o--o| FMG-SYD-PRD-VNT : peering&#10;    FMG-SYD-NPE-VNT |o--o| FMG-MAA-DEV-VNT : peering&#10;    Test-rg-migrate-vnet {&#10;        resourcegroup Test-rg-migrate&#10;        subscription IS-Dev-Test&#10;        location australiaeast&#10;        type Microsoft-Network-virtualNetworks&#10;    }&#10;    FMG-MAA-DEV-VNT {&#10;        resourcegroup FMG-MAA-DEV-RG-NETWORK&#10;        subscription IS-Dev-Test&#10;        location southindia&#10;        type Microsoft-Network-virtualNetworks&#10;    }&#10;    FMG-EUS-PRD-VNT {&#10;        resourcegroup FMG-EUS-PRD-RG-NETWORK&#10;        subscription IS-Production&#10;        location eastus&#10;        type Microsoft-Network-virtualNetworks&#10;    }&#10;    FMG-EUS-PRD-VNT ||--|{ FMG-EUS-COR-VWANHUB : peering&#10;    FMG-SYD-ASRTest-VNT-OffNet {&#10;        resourcegroup FMG-SYD-PRD-RG-ASR&#10;        subscription IS-Production&#10;        location australiaeast&#10;        type Microsoft-Network-virtualNetworks&#10;    }&#10;    FMG-SYD-PRD-VNT {&#10;        resourcegroup FMG-SYD-PRD-RG-NETWORK&#10;        subscription IS-Production&#10;        location australiaeast&#10;        type Microsoft-Network-virtualNetworks&#10;    }&#10;    FMG-SYD-PRD-VNT |o--o| FMG-AUC-PRD-VNT : peering&#10;    FMG-SYD-PRD-RG-VDI-vnet {&#10;        resourcegroup FMG-SYD-PRD-RG-VDI&#10;        subscription IS-Production&#10;        location australiaeast&#10;        type Microsoft-Network-virtualNetworks&#10;    }&#10;    FMG-FRC-PRD-VNT {&#10;        resourcegroup FMG-FRC-PRD-RG-NETWORK&#10;        subscription IS-Production&#10;        location francecentral&#10;        type Microsoft-Network-virtualNetworks&#10;    }&#10;    FMG-FRC-PRD-VNT {&#10;        resourcegroup FMG-FRC-PRD-RG-NETWORK&#10;        subscription IS-Production&#10;        location francecentral&#10;        type Microsoft-Network-virtualNetworks&#10;    }&#10;    FMG-AUC-PRD-VNT {&#10;        resourcegroup FMG-AUC-PRD-RG-NETWORK&#10;        subscription IS-Production&#10;        location australiacentral&#10;        type Microsoft-Network-virtualNetworks&#10;    }&#10;    AUE-ERC-COR-001 {&#10;        resourcegroup AUE-ARG-COR-NET-ER&#10;        subscription IS-Shared-Services&#10;        location australiaeast&#10;        type Microsoft-Network-expressRouteCircuits&#10;    }&#10;    AUE-LOCAL-COR-VPN-001 {&#10;        resourcegroup AUE-ARG-COR-NET-ER&#10;        subscription IS-Shared-Services&#10;        location australiaeast&#10;        type Microsoft-Network-localNetworkGateways&#10;    }&#10;    FMG-EUS-COR-LNG-001 {&#10;        resourcegroup FMG-EUS-COR-RG-NETWORK&#10;        subscription IS-Shared-Services&#10;        location eastus&#10;        type Microsoft-Network-localNetworkGateways&#10;    }&#10;    FMG-FRC-COR-LNG-001 {&#10;        resourcegroup FMG-FRC-COR-RG-NETWORK&#10;        subscription IS-Shared-Services&#10;        location francecentral&#10;        type Microsoft-Network-localNetworkGateways&#10;    }&#10;    FMG-FRC-POR-LNG-001 {&#10;        resourcegroup FMG-FRC-COR-RG-NETWORK&#10;        subscription IS-Shared-Services&#10;        location francecentral&#10;        type Microsoft-Network-localNetworkGateways&#10;    }&#10;    FMG-MAA-COR-LNG-001 {&#10;        resourcegroup FMG-MAA-COR-RG-NETWORK&#10;        subscription IS-Shared-Services&#10;        location southindia&#10;        type Microsoft-Network-localNetworkGateways&#10;    }&#10;    LNGWTOFMG {&#10;        resourcegroup FMG-SYD-NPE-RG-NETWORK&#10;        subscription IS-Dev-Test&#10;        location australiaeast&#10;        type Microsoft-Network-localNetworkGateways&#10;    }&#10;    FMGLANPROD {&#10;        resourcegroup RGSEADEV01&#10;        subscription IS-Dev-Test&#10;        location southeastasia&#10;        type Microsoft-Network-localNetworkGateways&#10;    }&#10;    VNET_DEV_V1 {&#10;        resourcegroup RGSEADEV01&#10;        subscription IS-Dev-Test&#10;        location southeastasia&#10;        type Microsoft-Network-localNetworkGateways&#10;    }&#10;    VNET_PROD_V1 {&#10;        resourcegroup RGSEADEV01&#10;        subscription IS-Dev-Test&#10;        location southeastasia&#10;        type Microsoft-Network-localNetworkGateways&#10;    }&#10;    VNET_UAT_V1 {&#10;        resourcegroup RGSEADEV01&#10;        subscription IS-Dev-Test&#10;        location southeastasia&#10;        type Microsoft-Network-localNetworkGateways&#10;    }&#10;    AUE-VNG-COR-ER-001 {&#10;        resourcegroup AUE-ARG-COR-NET-ER&#10;        subscription IS-Shared-Services&#10;        location australiaeast&#10;        type Microsoft-Network-virtualNetworkGateways-ExpressRoute&#10;    }&#10;    AUE-VNG-COR-ER-001 ||--|| AUE-VNT-COR-001 : gateway&#10;    AUE-VNG-COR-VPN-001 {&#10;        resourcegroup AUE-ARG-COR-NET-ER&#10;        subscription IS-Shared-Services&#10;        location australiaeast&#10;        type Microsoft-Network-virtualNetworkGateways-Vpn&#10;    }&#10;    AUE-VNG-COR-VPN-001 ||--|| AUE-VNT-COR-001 : gateway&#10;    FMG-FRC-COR-VNG-001 {&#10;        resourcegroup FMG-FRC-COR-RG-NETWORK&#10;        subscription IS-Shared-Services&#10;        location francecentral&#10;        type Microsoft-Network-virtualNetworkGateways-Vpn&#10;    }&#10;    FMG-FRC-COR-VNG-001 ||--|| FMG-FRC-COR-HUB : gateway&#10;    AUE-VNG-COR-ER-001 ||--|| AUE-ERC-COR-001 : connection&#10;    AUE-VNG-COR-VPN-001 ||--|| AUE-LOCAL-COR-VPN-001 : connection&#10;    FMG-FRC-COR-VNG-001 ||--|| FMG-FRC-COR-LNG-001 : connection&#10;    FMG-FRC-COR-VNG-001 ||--|| FMG-FRC-POR-LNG-001 : connection&#10;    FMG-EUS-COR-VWANHUB {&#10;        resourcegroup FMG-SYD-COR-RG-NETWORK&#10;        subscription IS-Shared-Services&#10;        location eastus&#10;        type Microsoft-Network-virtualHubs-FMG-VWAN-HUB&#10;    }&#10;    FMG-SYD-COR-VWANHUB {&#10;        resourcegroup FMG-SYD-COR-RG-NETWORK&#10;        subscription IS-Shared-Services&#10;        location australiaeast&#10;        type Microsoft-Network-virtualHubs-FMG-VWAN-HUB&#10;    }&#10;    FMG-MAA-COR-VWANHUB {&#10;        resourcegroup FMG-SYD-COR-RG-NETWORK&#10;        subscription IS-Shared-Services&#10;        location southindia&#10;        type Microsoft-Network-virtualHubs-FMG-VWAN-HUB&#10;    }" style="shadow=0;dashed=0;align=left;strokeWidth=1;shape=mxgraph.mermaid.abstract.mermaid;labelBackgroundColor=#ffffff;noLabel=1;" vertex="1" parent="1">
                    <mxGeometry x="270" y="380" width="530" height="400" as="geometry"/>
                </mxCell>
                <mxCell id="3" value="erDiagram&#10;    CUSTOMER ||--o{ ORDER : places&#10;    ORDER ||--|{ LINE-ITEM : contains&#10;    CUSTOMER }|..|{ DELIVERY-ADDRESS : uses&#10;    CUSTOMER {&#10;        blah deblah&#10;    }" style="shadow=0;dashed=0;align=left;strokeWidth=1;shape=mxgraph.mermaid.abstract.mermaid;labelBackgroundColor=#ffffff;noLabel=1;" vertex="1" parent="1">
                    <mxGeometry x="270" y="380" width="300" height="400" as="geometry"/>
                </mxCell>
            </root>
        </mxGraphModel>
    </diagram>
</mxfile>